# xmcd
#
# Track frame offsets: 
#        150
#        3642
#        19606
#        41455
#        43980
#        61901
#        80915
#        101491
#        121848
#        145169
#        168444
#        188178
#        208307
#        231384
#        253884
#
# Disc length: 3581 seconds
#
# Revision: 1
# Processed by: cddbd v1.5.2PL0 Copyright (c) Steve Scherf et al.
# Submitted via: ExactAudioCopy v0.99pb4
#
DISCID=d70dfb0f
DTITLE=Nadja Benaissa - Schritt für Schritt
DYEAR=2006
DGENRE=Blues
TTITLE0=Intro
TTITLE1=Schritt für Schritt
TTITLE2=Augenblick
TTITLE3=Leila skit
TTITLE4=Es ist Liebe
TTITLE5=Alles was Du suchst
TTITLE6=Herzschlag
TTITLE7=Leila
TTITLE8=Weitergehen
TTITLE9=Ich hab' Dich
TTITLE10=Alte Wunden
TTITLE11=Immer noch
TTITLE12=Die Welt
TTITLE13=Vater
TTITLE14=Alles führt zu Dir
EXTD=\n
EXTT0=
EXTT1=
EXTT2=
EXTT3=
EXTT4=
EXTT5=
EXTT6=
EXTT7=
EXTT8=
EXTT9=
EXTT10=
EXTT11=
EXTT12=
EXTT13=
EXTT14=
PLAYORDER=
